<!-- Generated by IcoMoon.io -->
<svg width="16" height="20" viewBox="0 0 16 20" fill="none" xmlns="http://www.w3.org/2000/svg">
    <path
        d="M10.7774 0.00823754C11.0657 -0.0226747 11.4001 0.037794 11.6778 0.116636C12.3061 0.294961 12.8162 0.676962 13.1192 1.2221C13.4339 1.78086 13.4948 2.43396 13.2872 3.0346C13.0236 3.77532 12.4581 4.14735 11.752 4.48968L11.7598 6.65082C12.2645 6.79419 12.7557 6.95705 13.2139 7.20453C14.267 7.77339 14.9871 8.73236 15.2891 9.82367C15.6084 10.9682 15.4268 12.1844 14.7842 13.2045C14.195 14.1291 13.2557 14.812 12.1309 15.0737C10.6613 15.4158 9.41453 15.0449 8.15143 14.3452C7.59311 14.9014 7.04156 15.4642 6.49713 16.0327C6.74054 16.5676 6.82163 17.1292 6.66022 17.6977C6.50244 18.2534 6.08442 18.7297 5.54987 19.0112C4.95084 19.3271 4.26813 19.3845 3.61139 19.2094C2.95962 19.0356 2.41139 18.6595 2.09284 18.0942C1.77928 17.5384 1.75283 16.8867 1.95612 16.2934C2.18739 15.6191 2.65909 15.2041 3.32135 14.8959C4.03393 14.6363 4.62286 14.7211 5.31842 14.9545C5.89769 14.3866 6.44315 13.79 7.02838 13.227C6.38526 12.0518 6.17738 11.0504 6.51178 9.75531C5.78355 9.43854 5.08127 9.06969 4.3526 8.75238C3.96332 9.12998 3.48756 9.38931 2.92877 9.47699C2.26223 9.58154 1.55868 9.41196 1.0108 9.0473C0.46812 8.68089 0.11118 8.12244 0.0235 7.50335C-0.0665095 6.90294 0.102994 6.24089 0.515687 5.76703C0.941219 5.27841 1.60183 4.98351 2.26862 4.91839C2.92375 4.85894 3.57751 5.04547 4.08502 5.43597C4.73399 5.94243 4.92137 6.57238 5.00006 7.32269C5.69067 7.71722 6.48161 8.02122 7.20123 8.37347C8.13755 7.34212 8.82188 7.01643 10.1866 6.62445L10.1876 4.48089C9.9433 4.3898 9.69923 4.27902 9.48639 4.13324C8.94796 3.76211 8.59516 3.20216 8.50788 2.58343C8.42728 1.96816 8.61339 1.34836 9.02545 0.861753C9.4761 0.335028 10.0787 0.0944513 10.7774 0.00823754ZM10.6729 8.22601C9.07491 8.34711 7.8876 9.65706 8.02741 11.145C8.16749 12.6335 9.58144 13.731 11.1778 13.5912C12.76 13.4523 13.925 12.1502 13.7862 10.6752C13.6474 9.20005 12.2568 8.10599 10.6729 8.22601Z"
        fill="white" />
</svg>