<svg aria-hidden="true" style="position: absolute; width: 0; height: 0; overflow: hidden;" version="1.1"
    xmlns="http://www.w3.org/2000/svg" xmlns:xlink="http://www.w3.org/1999/xlink">
    <defs>
        <symbol id="icon-logo" viewBox="0 0 110 32">
            <path
                d="M16.216 0.013c0.434-0.050 0.936 0.047 1.354 0.174 0.945 0.288 1.714 0.905 2.169 1.785 0.474 0.902 0.564 1.957 0.252 2.927-0.397 1.196-1.247 1.797-2.31 2.35l0.012 3.489c0.759 0.231 1.498 0.495 2.187 0.894 1.584 0.919 2.669 2.467 3.123 4.23 0.48 1.848 0.206 3.812-0.76 5.459-0.887 1.493-2.3 2.597-3.993 3.019-2.211 0.552-4.086-0.047-5.986-1.176-0.84 0.898-1.67 1.807-2.489 2.725 0.366 0.864 0.487 1.77 0.244 2.687-0.237 0.897-0.866 1.666-1.67 2.121-0.901 0.51-1.928 0.603-2.916 0.321-0.981-0.281-1.805-0.889-2.284-1.801-0.472-0.897-0.511-1.949-0.206-2.907 0.348-1.089 1.057-1.759 2.053-2.257 1.072-0.419 1.958-0.281 3.005 0.096 0.872-0.917 1.693-1.88 2.574-2.789-0.968-1.898-1.281-3.515-0.778-5.606-1.096-0.511-2.153-1.108-3.249-1.62-0.586 0.61-1.301 1.028-2.142 1.169-1.003 0.169-2.061-0.105-2.885-0.694-0.817-0.592-1.354-1.493-1.486-2.493-0.135-0.97 0.12-2.038 0.741-2.803 0.64-0.789 1.634-1.265 2.637-1.37 0.986-0.096 1.97 0.205 2.734 0.836 0.976 0.818 1.258 1.834 1.376 3.045 1.039 0.637 2.229 1.129 3.311 1.698 1.409-1.665 2.439-2.191 4.492-2.824l0.002-3.463c-0.368-0.147-0.735-0.326-1.055-0.561-0.81-0.599-1.341-1.502-1.473-2.501-0.121-0.994 0.159-1.996 0.779-2.782 0.678-0.851 1.585-1.238 2.636-1.377zM20.744 17.238c-0.209-2.382-2.302-4.148-4.685-3.955-2.404 0.196-4.189 2.311-3.979 4.714 0.211 2.404 2.337 4.176 4.739 3.951 2.381-0.224 4.134-2.328 3.925-4.71z">
            </path>
            <path
                d="M101.919 11.829c0.708 0.001 1.416 0.011 2.124 0.029l-0.004 3.742c0.545-0.424 1.14-0.739 1.83-0.843 0.933-0.141 1.885 0.1 2.637 0.669 0.908 0.687 1.385 1.844 1.524 2.949 0.174 1.401-0.155 2.749-1.020 3.866-0.574 0.554-1.263 0.941-2.057 1.072-1.165 0.191-2.088-0.216-2.997-0.894l-0.004 0.817-2.032-0.003-0.001-11.404zM105.559 16.733c-0.631 0.21-1.069 0.51-1.377 1.118-0.343 0.675-0.366 1.508-0.099 2.211 0.203 0.538 0.585 1.004 1.117 1.244 0.386 0.175 0.75 0.18 1.165 0.155 0.659-0.249 1.102-0.569 1.401-1.229 0.312-0.689 0.307-1.52 0.011-2.214-0.227-0.533-0.632-0.963-1.177-1.174-0.341-0.131-0.682-0.149-1.042-0.111z">
            </path>
            <path
                d="M41.085 11.807c1.246 3.84 2.84 7.575 4.055 11.425l-2.296 0.003c-0.269-0.822-0.529-1.752-0.94-2.512-0.268-0.115-0.586-0.076-0.873-0.073-1.107 0.011-2.215 0.007-3.323-0.012-0.348 0.849-0.628 1.722-0.903 2.596l-2.339-0.002c1.221-3.833 2.678-7.617 3.996-11.42 0.872 0.019 1.749-0.001 2.622-0.005zM39.776 14.646c-0.483 1.374-0.934 2.768-1.464 4.125l1.681-0.001 1.307-0.015c-0.184-0.518-1.25-3.88-1.524-4.109z">
            </path>
            <path
                d="M89.498 11.832l2.196 0.013c-0.030 2.647-0.007 5.298-0.007 7.945-0.001 1.093 0.11 2.287-0.012 3.365l-0.121 0.083h-2.058l-0.004-4.889c-1.645-0.046-3.303-0.005-4.949-0.003l0.001 4.894-2.209-0.004 0.009-11.401 2.201 0.005 0.001 4.662h4.957l-0.003-4.67z">
            </path>
            <path
                d="M93.015 14.992c0.729 0.021 1.459 0.013 2.188 0.017-0.009 1.165-0.193 4.384 0.089 5.347 0.111 0.38 0.333 0.728 0.693 0.913 0.541 0.278 1.090 0.117 1.628-0.072 0.238-0.266 0.443-0.515 0.561-0.859 0.386-1.123 0.18-4.006 0.174-5.343 0.694 0.019 1.391 0.004 2.085 0-0.016 0.8-0.003 1.603-0.004 2.404l0.011 5.834c-0.683 0.010-1.365 0.005-2.047-0.015l-0.063-0.074c0.010-0.173 0.012-0.314-0.018-0.487-0.639 0.277-1.209 0.697-1.936 0.712-0.843 0.017-1.758-0.245-2.364-0.852-0.459-0.459-0.739-1.076-0.883-1.703-0.31-1.348-0.127-4.332-0.113-5.824z">
            </path>
            <path
                d="M63.498 14.762c1.089-0.085 2.224-0.008 3.104 0.725 0.617 0.514 0.816 1.13 0.883 1.897l-1.968-0.002c-0.113-0.21-0.227-0.454-0.404-0.619-0.284-0.262-0.694-0.398-1.078-0.377-0.298 0.016-0.679 0.135-0.865 0.387-0.113 0.154-0.175 0.311-0.132 0.503 0.224 1.009 2.79 0.884 3.607 1.419 0.52 0.341 0.919 0.951 1.034 1.56 0.115 0.623-0.033 1.266-0.408 1.775-0.627 0.865-1.593 1.175-2.599 1.329-0.931 0.056-2.010-0.194-2.756-0.761-0.699-0.532-0.95-1.185-1.045-2.025 0.663 0.001 1.326-0.005 1.989-0.018 0.039 0.125 0.082 0.245 0.145 0.361 0.289 0.533 0.865 0.651 1.4 0.808 0.353-0.081 0.831-0.172 1.082-0.457 0.151-0.172 0.204-0.471 0.14-0.691-0.245-0.843-2.703-0.943-3.556-1.468-0.505-0.311-0.876-0.764-1.011-1.349-0.121-0.53-0.075-1.125 0.223-1.59 0.538-0.84 1.28-1.185 2.216-1.408z">
            </path>
            <path
                d="M76.743 14.76c0.62-0.050 1.227-0.047 1.832 0.117 0.697 0.189 1.438 0.578 1.79 1.239 0.17 0.317 0.3 0.886 0.186 1.237-0.565 0.122-1.255 0.040-1.835 0.033-0.085-0.287-0.158-0.509-0.391-0.707-0.295-0.247-0.679-0.364-1.062-0.322-0.3 0.031-0.685 0.178-0.852 0.447-0.1 0.16-0.141 0.325-0.078 0.509 0.363 1.068 2.535 0.814 3.38 1.297 0.538 0.308 0.988 0.848 1.141 1.454 0.164 0.65 0.056 1.372-0.319 1.931-0.56 0.835-1.449 1.149-2.388 1.331-0.922 0.114-1.989-0.082-2.759-0.613-0.791-0.545-1.028-1.229-1.206-2.123l1.973-0.015c0.12 0.302 0.229 0.537 0.485 0.746 0.341 0.279 0.745 0.406 1.184 0.347 0.341-0.045 0.676-0.202 0.88-0.487 0.133-0.187 0.199-0.414 0.136-0.642-0.247-0.878-2.426-0.823-3.29-1.288-0.584-0.315-1.047-0.838-1.231-1.481-0.157-0.544-0.091-1.11 0.196-1.599 0.477-0.81 1.353-1.206 2.231-1.409z">
            </path>
            <path
                d="M52.453 12.728c0.655 0.023 1.315 0.009 1.97 0.011-0.007 0.74 0.004 1.48 0.032 2.219l1.944 0.001-0.004 1.694-1.851-0.001c0.001 1.066-0.243 3.817 0.246 4.641 0.382 0.301 1.145 0.189 1.609 0.183l-0.007 1.404c0.004 0.145 0.004 0.218-0.070 0.344-0.259 0.124-0.524 0.152-0.81 0.154-0.752 0.007-1.791-0.129-2.331-0.693-1.086-1.131-0.739-4.457-0.734-6.035l-1.254 0.002 0.004-1.698 1.249 0.008 0.007-2.236z">
            </path>
            <path
                d="M69.353 12.719l1.934 0.011c-0.015 0.741 0.016 1.485 0.030 2.226l1.975-0.004-0.003 1.702-1.859-0.001c0.023 1.015-0.226 3.85 0.234 4.617 0.494 0.295 1.113 0.216 1.669 0.215-0.007 0.489 0.003 0.979 0.005 1.469l-0.023 0.186c-0.191 0.202-0.486 0.194-0.747 0.2-0.794 0.019-1.891-0.107-2.467-0.71-1.075-1.126-0.74-4.405-0.731-5.978l-1.323 0.001c-0.017-0.564-0.010-1.129-0.015-1.692l1.318 0.007 0.004-2.249z">
            </path>
            <path
                d="M27.633 11.453c0.102-0.005 0.2-0.007 0.301 0.008 0.316 0.046 0.628 0.198 0.802 0.476 0.185 0.294 0.21 0.687 0.235 1.028 0.125 1.688 0.032 3.444 0.032 5.138-0 1.384 0.153 3.26-0.104 4.592-0.081 0.419-0.358 0.619-0.691 0.846-0.127 0.015-0.259 0.033-0.387 0.026-0.285-0.016-0.556-0.143-0.74-0.361-0.183-0.216-0.177-0.648-0.193-0.919-0.116-1.942-0.018-3.946-0.016-5.893 0.001-1.107-0.151-3.225 0.082-4.213 0.083-0.353 0.402-0.539 0.68-0.727z">
            </path>
            <path
                d="M50.055 14.929l0.278-0.003c0.329 0.368 0.166 1.535 0.155 2.018-0.696-0.007-1.354-0.035-1.899 0.471-1.023 0.949-0.678 4.425-0.688 5.82-0.548-0.005-1.617 0.195-2.035-0.154l-0.022-0.346c0.010-2.586-0.055-5.169-0.038-7.754 0.664 0.021 1.33 0.007 1.994 0.003l-0.023 1.142c0.123-0.177 0.246-0.366 0.389-0.527 0.503-0.568 1.186-0.619 1.891-0.669z">
            </path>
            <path d="M57.608 14.963l2.086 0.001 0.005 8.275-2.11-0.003 0.019-8.273z"></path>
            <path
                d="M24.719 14.164c0.342 0.063 0.645 0.192 0.845 0.489 0.308 0.459 0.316 4.955 0.162 5.596-0.084 0.351-0.388 0.522-0.676 0.691-0.329-0.020-0.763-0.049-0.983-0.335-0.328-0.425-0.3-5.203-0.114-5.802 0.108-0.348 0.466-0.495 0.765-0.639z">
            </path>
            <path
                d="M58.514 11.554c0.62-0.073 1.185 0.36 1.276 0.978s-0.325 1.195-0.939 1.304c-0.414 0.073-0.835-0.084-1.099-0.411s-0.33-0.771-0.171-1.161c0.159-0.389 0.516-0.661 0.933-0.71z">
            </path>
        </symbol>
    </defs>
</svg>