<svg aria-hidden="true" style="position: absolute; width: 0; height: 0; overflow: hidden;" version="1.1"
    xmlns="http://www.w3.org/2000/svg" xmlns:xlink="http://www.w3.org/1999/xlink">
    <defs>
        <symbol id="error-circle" viewBox="0 0 32 32">
            <path
                d="M15.938 2.667c-7.317 0-13.271 5.981-13.271 13.333s5.981 13.333 13.333 13.333c7.352 0 13.333-5.981 13.333-13.333s-6.009-13.333-13.396-13.333zM16.001 26.667c-5.881 0-10.667-4.785-10.667-10.667s4.756-10.667 10.604-10.667c5.917 0 10.729 4.785 10.729 10.667s-4.785 10.667-10.667 10.667z">
            </path>
            <path d="M14.667 9.333h2.667v9.333h-2.667v-9.333zM14.667 20h2.667v2.667h-2.667v-2.667z"></path>
        </symbol>
        <symbol id="search" viewBox="0 0 32 32">
            <path
                d="M13.333 24c2.367-0.001 4.665-0.793 6.529-2.251l5.861 5.861 1.885-1.885-5.861-5.861c1.459-1.864 2.251-4.163 2.252-6.531 0-5.881-4.785-10.667-10.667-10.667s-10.667 4.785-10.667 10.667c0 5.881 4.785 10.667 10.667 10.667zM13.333 5.333c4.412 0 8 3.588 8 8s-3.588 8-8 8c-4.412 0-8-3.588-8-8s3.588-8 8-8z">
            </path>
        </symbol>
        <symbol id="chevron-up" viewBox="0 0 32 32">
            <path d="M8.391 19.057l1.885 1.885 5.724-5.724 5.724 5.724 1.885-1.885-7.609-7.609-7.609 7.609z"></path>
        </symbol>
        <symbol id="chevron-down" viewBox="0 0 32 32">
            <path d="M21.724 11.057l-5.724 5.724-5.724-5.724-1.885 1.885 7.609 7.609 7.609-7.609-1.885-1.885z"></path>
        </symbol>
        <symbol id="youtube" viewBox="0 0 32 32">
            <path
                d="M28.791 9.604c-0.152-0.563-0.449-1.077-0.861-1.49s-0.925-0.711-1.489-0.864c-2.088-0.573-10.441-0.583-10.441-0.583s-8.352-0.009-10.441 0.539c-0.563 0.16-1.075 0.462-1.487 0.878s-0.711 0.929-0.867 1.493c-0.551 2.088-0.556 6.419-0.556 6.419s-0.005 4.352 0.541 6.419c0.307 1.143 1.207 2.045 2.351 2.353 2.109 0.573 10.44 0.583 10.44 0.583s8.353 0.009 10.441-0.537c0.563-0.153 1.077-0.45 1.49-0.862s0.712-0.925 0.866-1.488c0.552-2.087 0.556-6.416 0.556-6.416s0.027-4.353-0.543-6.441zM13.328 20.007l0.007-8 6.943 4.007-6.949 3.993z">
            </path>
        </symbol>
        <symbol id="instagram" viewBox="0 0 32 32">
            <path
                d="M15.998 6.161c3.206 0 3.585 0.014 4.846 0.071 1.172 0.052 1.804 0.248 2.226 0.412 0.558 0.216 0.961 0.478 1.378 0.895 0.422 0.422 0.679 0.82 0.9 1.378 0.164 0.422 0.361 1.059 0.412 2.226 0.056 1.266 0.071 1.645 0.071 4.847s-0.014 3.585-0.071 4.847c-0.052 1.172-0.248 1.804-0.412 2.227-0.216 0.558-0.478 0.961-0.895 1.377-0.422 0.422-0.82 0.679-1.378 0.9-0.422 0.164-1.060 0.361-2.226 0.412-1.266 0.056-1.645 0.071-4.847 0.071s-3.585-0.014-4.847-0.071c-1.172-0.052-1.804-0.248-2.226-0.412-0.558-0.216-0.961-0.478-1.378-0.895-0.422-0.422-0.679-0.82-0.9-1.378-0.164-0.422-0.361-1.060-0.412-2.226-0.056-1.266-0.071-1.645-0.071-4.847s0.014-3.585 0.071-4.847c0.052-1.172 0.248-1.804 0.412-2.226 0.216-0.558 0.478-0.961 0.895-1.378 0.422-0.422 0.82-0.679 1.378-0.9 0.422-0.164 1.059-0.361 2.226-0.412 1.261-0.056 1.641-0.071 4.847-0.071h0.001zM15.998 4.001c-3.258 0-3.665 0.014-4.945 0.071-1.275 0.056-2.151 0.262-2.91 0.558-0.792 0.309-1.462 0.717-2.127 1.387-0.67 0.666-1.078 1.336-1.387 2.123-0.295 0.764-0.502 1.636-0.558 2.91-0.056 1.285-0.071 1.692-0.071 4.949s0.014 3.665 0.071 4.945c0.056 1.275 0.262 2.151 0.558 2.91 0.31 0.792 0.717 1.462 1.387 2.127 0.665 0.665 1.336 1.078 2.123 1.383 0.764 0.295 1.636 0.502 2.91 0.558 1.279 0.056 1.687 0.071 4.945 0.071s3.666-0.014 4.945-0.071c1.275-0.056 2.151-0.262 2.91-0.558 0.787-0.305 1.458-0.717 2.123-1.383s1.078-1.336 1.383-2.123c0.295-0.764 0.502-1.635 0.558-2.91 0.056-1.279 0.071-1.687 0.071-4.945s-0.014-3.665-0.071-4.945c-0.056-1.275-0.262-2.151-0.558-2.91-0.295-0.797-0.703-1.467-1.373-2.133-0.665-0.665-1.336-1.078-2.123-1.383-0.764-0.295-1.635-0.502-2.91-0.558-1.284-0.061-1.692-0.075-4.949-0.075l-0.001 0.001z">
            </path>
            <path
                d="M15.998 9.836c-3.402 0-6.163 2.76-6.163 6.163s2.76 6.163 6.163 6.163c3.403 0 6.163-2.76 6.163-6.163s-2.76-6.163-6.163-6.163zM15.998 19.997c-2.208 0-3.998-1.79-3.998-3.998s1.79-3.998 3.998-3.998c2.208 0 3.998 1.79 3.998 3.998s-1.79 3.998-3.998 3.998z">
            </path>
            <path
                d="M23.843 9.592c0 0.795-0.644 1.439-1.439 1.439s-1.439-0.644-1.439-1.439 0.644-1.439 1.439-1.439c0.795 0 1.439 0.644 1.439 1.439z">
            </path>
        </symbol>
        <symbol id="facebook" viewBox="0 0 32 32">
            <path
                d="M29.333 16.405c0-7.409-5.969-13.415-13.333-13.415s-13.333 6.006-13.333 13.415c0 6.696 4.876 12.245 11.25 13.252v-9.374h-3.385v-3.878h3.385v-2.955c0-3.362 1.991-5.219 5.036-5.219 1.459 0 2.985 0.262 2.985 0.262v3.301h-1.681c-1.656 0-2.173 1.034-2.173 2.095v2.516h3.698l-0.591 3.878h-3.107v9.374c6.374-1.006 11.25-6.556 11.25-13.252z">
            </path>
        </symbol>
        <symbol id="logo" viewBox="0 0 32 32">
            <path
                d="M17.5 3.14c0.384-0.041 0.83 0.039 1.2 0.144 0.838 0.238 1.518 0.747 1.922 1.474 0.42 0.745 0.5 1.616 0.223 2.417-0.352 0.988-1.105 1.485-2.047 1.941l0.011 2.881c0.673 0.191 1.328 0.408 1.939 0.738 1.404 0.758 2.365 2.038 2.768 3.493 0.426 1.526 0.184 3.148-0.673 4.508-0.786 1.233-2.039 2.143-3.539 2.492-1.959 0.456-3.621-0.038-5.305-0.971-0.744 0.742-1.48 1.492-2.206 2.25 0.325 0.713 0.432 1.462 0.217 2.22-0.21 0.741-0.768 1.376-1.48 1.751-0.799 0.421-1.709 0.498-2.584 0.264-0.869-0.232-1.599-0.733-2.024-1.487-0.418-0.741-0.453-1.609-0.182-2.4 0.308-0.899 0.937-1.453 1.82-1.864 0.95-0.346 1.736-0.232 2.664 0.079 0.772-0.757 1.5-1.553 2.28-2.304-0.858-1.567-1.136-2.902-0.69-4.629-0.971-0.422-1.907-0.914-2.879-1.337-0.519 0.504-1.154 0.849-1.899 0.966-0.889 0.139-1.826-0.087-2.556-0.573-0.724-0.489-1.2-1.233-1.317-2.059-0.12-0.801 0.106-1.683 0.656-2.315 0.567-0.652 1.448-1.044 2.337-1.131 0.874-0.079 1.746 0.169 2.422 0.69 0.865 0.675 1.115 1.514 1.22 2.515 0.921 0.526 1.976 0.932 2.935 1.402 1.248-1.375 2.16-1.809 3.98-2.332l0.002-2.859c-0.326-0.121-0.651-0.269-0.935-0.464-0.718-0.495-1.189-1.24-1.306-2.065-0.108-0.821 0.141-1.648 0.691-2.297 0.601-0.702 1.404-1.022 2.336-1.137zM21.512 17.362c-0.185-1.967-2.040-3.425-4.152-3.265-2.131 0.162-3.713 1.908-3.527 3.892s2.072 3.448 4.2 3.262c2.11-0.185 3.663-1.922 3.478-3.889z">
            </path>
            <path
                d="M27.617 12.586c0.090-0.004 0.178-0.005 0.267 0.007 0.28 0.038 0.556 0.164 0.71 0.393 0.164 0.243 0.186 0.567 0.208 0.849 0.111 1.394 0.029 2.844 0.028 4.243-0 1.142 0.136 2.691-0.092 3.792-0.072 0.346-0.318 0.511-0.612 0.698-0.112 0.013-0.23 0.027-0.343 0.021-0.253-0.013-0.492-0.118-0.656-0.298-0.162-0.178-0.157-0.535-0.171-0.759-0.103-1.603-0.016-3.258-0.014-4.866 0.001-0.914-0.134-2.663 0.072-3.479 0.074-0.292 0.356-0.445 0.603-0.6z">
            </path>
            <path
                d="M25.035 14.825c0.304 0.052 0.572 0.158 0.749 0.404 0.273 0.379 0.28 4.091 0.144 4.621-0.075 0.29-0.344 0.431-0.599 0.57-0.292-0.016-0.676-0.040-0.871-0.276-0.29-0.351-0.266-4.296-0.101-4.791 0.096-0.287 0.413-0.409 0.678-0.528z">
            </path>
        </symbol>
        <symbol id="arrow-right" viewBox="0 0 32 32">
            <path
                d="M12.098 27.429l3.232 3.232 15.33-15.33-15.33-15.33-3.232 3.232 9.813 9.813h-21.911v4.571h21.911l-9.813 9.813z">
            </path>
        </symbol>
        <symbol id="arrow-left" viewBox="0 0 32 32">
            <path
                d="M18.562 27.429l-9.813-9.813h21.911v-4.571h-21.911l9.813-9.813-3.232-3.232-15.33 15.33 15.33 15.33 3.232-3.232z">
            </path>
        </symbol>
        <symbol id="arrow-down" viewBox="0 0 32 32">
            <path
                d="M30.661 15.33l-3.232-3.232-9.813 9.813v-21.911h-4.571v21.911l-9.813-9.813-3.232 3.232 15.33 15.33 15.33-15.33z">
            </path>
        </symbol>
        <symbol id="learn-more" viewBox="0 0 18 32">
            <path d="M0 32l18.286-16-18.286-16v32z"></path>
        </symbol>
        <symbol id="explore" viewBox="0 0 24 32">
            <path
                d="M0.858 31.82c0.259 0.135 0.549 0.196 0.841 0.178s0.572-0.115 0.812-0.281l20.8-14.4c0.212-0.147 0.386-0.344 0.506-0.573s0.183-0.484 0.183-0.742-0.063-0.513-0.183-0.742c-0.12-0.229-0.294-0.426-0.506-0.573l-20.8-14.4c-0.24-0.167-0.521-0.266-0.813-0.284s-0.583 0.043-0.842 0.179c-0.259 0.136-0.476 0.34-0.627 0.59s-0.23 0.537-0.229 0.83v28.8c-0 0.292 0.080 0.579 0.231 0.828s0.368 0.454 0.627 0.589zM3.2 4.657l16.389 11.346-16.389 11.346v-22.691z">
            </path>
        </symbol>
        <symbol id="close-x" viewBox="0 0 32 32">
            <path
                d="M26.397 0l-11.315 11.312-11.312-11.312-3.771 3.771 11.312 11.312-11.312 11.312 3.771 3.771 11.312-11.312 11.315 11.312 3.771-3.771-11.312-11.312 11.312-11.312-3.771-3.771z">
            </path>
        </symbol>
        <symbol id="burger" viewBox="0 0 43 32">
            <path
                d="M0 0h42.667v5.333h-42.667v-5.333zM10.667 13.333h32v5.333h-32v-5.333zM24 26.667h18.667v5.333h-18.667v-5.333z">
            </path>
        </symbol>
        <symbol id="star" viewBox="0 0 34 32">
            <path
                d="M15.277 1.031c0.579-1.375 2.551-1.375 3.13 0l3.417 8.116c0.244 0.58 0.796 0.976 1.43 1.026l8.869 0.702c1.503 0.119 2.112 1.972 0.967 2.941l-6.757 5.718c-0.483 0.408-0.694 1.049-0.546 1.66l2.064 8.55c0.35 1.449-1.245 2.594-2.532 1.817l-7.593-4.582c-0.542-0.327-1.224-0.327-1.767 0l-7.593 4.582c-1.287 0.776-2.882-0.369-2.532-1.817l2.064-8.55c0.147-0.611-0.063-1.252-0.546-1.66l-6.757-5.718c-1.145-0.969-0.536-2.822 0.967-2.941l8.869-0.702c0.633-0.050 1.185-0.446 1.429-1.026l3.417-8.116z">
            </path>
        </symbol>
    </defs>
</svg>