<!-- Generated by IcoMoon.io -->
<svg version="1.1" xmlns="http://www.w3.org/2000/svg" width="32" height="32" viewBox="0 0 32 32">
<path d="M17.5 3.14c0.384-0.041 0.83 0.039 1.2 0.144 0.838 0.238 1.518 0.747 1.922 1.474 0.42 0.745 0.5 1.616 0.223 2.417-0.352 0.988-1.105 1.485-2.047 1.941l0.011 2.881c0.673 0.191 1.328 0.408 1.939 0.738 1.404 0.758 2.365 2.038 2.768 3.493 0.426 1.526 0.184 3.148-0.673 4.508-0.786 1.233-2.039 2.143-3.539 2.492-1.959 0.456-3.621-0.038-5.305-0.971-0.744 0.742-1.48 1.492-2.206 2.25 0.325 0.713 0.432 1.462 0.217 2.22-0.21 0.741-0.768 1.376-1.48 1.751-0.799 0.421-1.709 0.498-2.584 0.264-0.869-0.232-1.599-0.733-2.024-1.487-0.418-0.741-0.453-1.609-0.182-2.4 0.308-0.899 0.937-1.453 1.82-1.864 0.95-0.346 1.736-0.232 2.664 0.079 0.772-0.757 1.5-1.553 2.28-2.304-0.858-1.567-1.136-2.902-0.69-4.629-0.971-0.422-1.907-0.914-2.879-1.337-0.519 0.504-1.154 0.849-1.899 0.966-0.889 0.139-1.826-0.087-2.556-0.573-0.724-0.489-1.2-1.233-1.317-2.059-0.12-0.801 0.106-1.683 0.656-2.315 0.567-0.652 1.448-1.044 2.337-1.131 0.874-0.079 1.746 0.169 2.422 0.69 0.865 0.675 1.115 1.514 1.22 2.515 0.921 0.526 1.976 0.932 2.935 1.402 1.248-1.375 2.16-1.809 3.98-2.332l0.002-2.859c-0.326-0.121-0.651-0.269-0.935-0.464-0.718-0.495-1.189-1.24-1.306-2.065-0.108-0.821 0.141-1.648 0.691-2.297 0.601-0.702 1.404-1.022 2.336-1.137zM21.512 17.362c-0.185-1.967-2.040-3.425-4.152-3.265-2.131 0.162-3.713 1.908-3.527 3.892s2.072 3.448 4.2 3.262c2.11-0.185 3.663-1.922 3.478-3.889z"></path>
<path d="M27.617 12.586c0.090-0.004 0.178-0.005 0.267 0.007 0.28 0.038 0.556 0.164 0.71 0.393 0.164 0.243 0.186 0.567 0.208 0.849 0.111 1.394 0.029 2.844 0.028 4.243-0 1.142 0.136 2.691-0.092 3.792-0.072 0.346-0.318 0.511-0.612 0.698-0.112 0.013-0.23 0.027-0.343 0.021-0.253-0.013-0.492-0.118-0.656-0.298-0.162-0.178-0.157-0.535-0.171-0.759-0.103-1.603-0.016-3.258-0.014-4.866 0.001-0.914-0.134-2.663 0.072-3.479 0.074-0.292 0.356-0.445 0.603-0.6z"></path>
<path d="M25.035 14.825c0.304 0.052 0.572 0.158 0.749 0.404 0.273 0.379 0.28 4.091 0.144 4.621-0.075 0.29-0.344 0.431-0.599 0.57-0.292-0.016-0.676-0.040-0.871-0.276-0.29-0.351-0.266-4.296-0.101-4.791 0.096-0.287 0.413-0.409 0.678-0.528z"></path>
</svg>
