<svg aria-hidden="true" style="position: absolute; width: 0; height: 0; overflow: hidden;" version="1.1"
    xmlns="http://www.w3.org/2000/svg" xmlns:xlink="http://www.w3.org/1999/xlink">
    <defs>
        <symbol id="star" viewBox="0 0 34 32">
            <path
                d="M15.277 1.031c0.579-1.375 2.551-1.375 3.13 0l3.417 8.116c0.244 0.58 0.796 0.976 1.43 1.026l8.869 0.702c1.503 0.119 2.112 1.972 0.967 2.941l-6.757 5.718c-0.483 0.408-0.694 1.049-0.546 1.66l2.064 8.55c0.35 1.449-1.245 2.594-2.532 1.817l-7.593-4.582c-0.542-0.327-1.224-0.327-1.767 0l-7.593 4.582c-1.287 0.776-2.882-0.369-2.532-1.817l2.064-8.55c0.147-0.611-0.063-1.252-0.546-1.66l-6.757-5.718c-1.145-0.969-0.536-2.822 0.967-2.941l8.869-0.702c0.633-0.050 1.185-0.446 1.429-1.026l3.417-8.116z">
            </path>
        </symbol>
         <symbol id="arrow-right" viewBox="0 0 32 32">
            <path
                d="M12.098 27.429l3.232 3.232 15.33-15.33-15.33-15.33-3.232 3.232 9.813 9.813h-21.911v4.571h21.911l-9.813 9.813z">
            </path>
        </symbol>
        <symbol id="arrow-left" viewBox="0 0 32 32">
            <path
                d="M18.562 27.429l-9.813-9.813h21.911v-4.571h-21.911l9.813-9.813-3.232-3.232-15.33 15.33 15.33 15.33 3.232-3.232z">
            </path>
        </symbol>
    </defs>
</svg>
